<mxfile host="app.diagrams.net" modified="2021-05-20T12:20:10.140Z" agent="5.0 (Macintosh; Intel Mac OS X 10_15_6) AppleWebKit/537.36 (KHTML, like Gecko) Chrome/90.0.4430.212 Safari/537.36" etag="T8c7ilu-u-i94p1lxawD" version="14.6.13" type="github">
  <diagram id="SCZk6k32NKTfP9UQjD4v" name="Page-1">
    <mxGraphModel dx="1304" dy="590" grid="1" gridSize="10" guides="1" tooltips="1" connect="1" arrows="1" fold="1" page="1" pageScale="1" pageWidth="827" pageHeight="1169" math="0" shadow="0">
      <root>
        <mxCell id="0" />
        <mxCell id="1" parent="0" />
        <mxCell id="B5H4TQYkD65pqtSx5uc_-9" style="edgeStyle=orthogonalEdgeStyle;rounded=0;orthogonalLoop=1;jettySize=auto;html=1;exitX=0.5;exitY=1;exitDx=0;exitDy=0;entryX=0.5;entryY=0;entryDx=0;entryDy=0;" edge="1" parent="1" source="B5H4TQYkD65pqtSx5uc_-1" target="B5H4TQYkD65pqtSx5uc_-2">
          <mxGeometry relative="1" as="geometry" />
        </mxCell>
        <mxCell id="B5H4TQYkD65pqtSx5uc_-1" value="&lt;b&gt;&lt;font color=&quot;#990099&quot; style=&quot;font-size: 16px&quot;&gt;TencentCloud&lt;/font&gt;&lt;/b&gt;" style="rounded=1;whiteSpace=wrap;html=1;align=center;" vertex="1" parent="1">
          <mxGeometry x="120" y="70" width="120" height="60" as="geometry" />
        </mxCell>
        <mxCell id="B5H4TQYkD65pqtSx5uc_-2" value="&lt;b&gt;&lt;font color=&quot;#990099&quot; style=&quot;font-size: 16px&quot;&gt;API&lt;/font&gt;&lt;/b&gt;" style="rounded=1;whiteSpace=wrap;html=1;align=center;" vertex="1" parent="1">
          <mxGeometry x="120" y="200" width="120" height="60" as="geometry" />
        </mxCell>
        <mxCell id="B5H4TQYkD65pqtSx5uc_-3" value="&lt;b&gt;&lt;font color=&quot;#990099&quot; style=&quot;font-size: 16px&quot;&gt;MySQL&lt;/font&gt;&lt;/b&gt;" style="rounded=1;whiteSpace=wrap;html=1;align=center;" vertex="1" parent="1">
          <mxGeometry x="60" y="350" width="120" height="60" as="geometry" />
        </mxCell>
        <mxCell id="B5H4TQYkD65pqtSx5uc_-14" style="edgeStyle=orthogonalEdgeStyle;rounded=0;orthogonalLoop=1;jettySize=auto;html=1;exitX=0.5;exitY=1;exitDx=0;exitDy=0;" edge="1" parent="1" source="B5H4TQYkD65pqtSx5uc_-4" target="B5H4TQYkD65pqtSx5uc_-5">
          <mxGeometry relative="1" as="geometry" />
        </mxCell>
        <mxCell id="B5H4TQYkD65pqtSx5uc_-4" value="&lt;b&gt;&lt;font color=&quot;#990099&quot; style=&quot;font-size: 16px&quot;&gt;Redis(String)&lt;/font&gt;&lt;/b&gt;" style="rounded=1;whiteSpace=wrap;html=1;align=center;" vertex="1" parent="1">
          <mxGeometry x="270" y="270" width="120" height="60" as="geometry" />
        </mxCell>
        <mxCell id="B5H4TQYkD65pqtSx5uc_-16" style="edgeStyle=orthogonalEdgeStyle;rounded=0;orthogonalLoop=1;jettySize=auto;html=1;exitX=0.5;exitY=1;exitDx=0;exitDy=0;entryX=0.5;entryY=0;entryDx=0;entryDy=0;" edge="1" parent="1" source="B5H4TQYkD65pqtSx5uc_-5" target="B5H4TQYkD65pqtSx5uc_-6">
          <mxGeometry relative="1" as="geometry" />
        </mxCell>
        <mxCell id="B5H4TQYkD65pqtSx5uc_-5" value="&lt;b&gt;&lt;font color=&quot;#990099&quot; style=&quot;font-size: 16px&quot;&gt;json_data&lt;/font&gt;&lt;/b&gt;" style="rounded=1;whiteSpace=wrap;html=1;align=center;" vertex="1" parent="1">
          <mxGeometry x="270" y="370" width="120" height="60" as="geometry" />
        </mxCell>
        <mxCell id="B5H4TQYkD65pqtSx5uc_-20" style="edgeStyle=orthogonalEdgeStyle;rounded=0;orthogonalLoop=1;jettySize=auto;html=1;exitX=1;exitY=0.5;exitDx=0;exitDy=0;entryX=0;entryY=0.5;entryDx=0;entryDy=0;" edge="1" parent="1" source="B5H4TQYkD65pqtSx5uc_-6" target="B5H4TQYkD65pqtSx5uc_-8">
          <mxGeometry relative="1" as="geometry" />
        </mxCell>
        <mxCell id="B5H4TQYkD65pqtSx5uc_-6" value="&lt;b&gt;&lt;font color=&quot;#990099&quot; style=&quot;font-size: 16px&quot;&gt;BillCost_API&lt;/font&gt;&lt;/b&gt;" style="rounded=1;whiteSpace=wrap;html=1;align=center;" vertex="1" parent="1">
          <mxGeometry x="270" y="470" width="120" height="60" as="geometry" />
        </mxCell>
        <mxCell id="B5H4TQYkD65pqtSx5uc_-26" style="edgeStyle=orthogonalEdgeStyle;rounded=0;orthogonalLoop=1;jettySize=auto;html=1;exitX=0.5;exitY=1;exitDx=0;exitDy=0;entryX=0.5;entryY=0;entryDx=0;entryDy=0;" edge="1" parent="1" source="B5H4TQYkD65pqtSx5uc_-7" target="B5H4TQYkD65pqtSx5uc_-25">
          <mxGeometry relative="1" as="geometry" />
        </mxCell>
        <mxCell id="B5H4TQYkD65pqtSx5uc_-7" value="&lt;b&gt;&lt;font color=&quot;#990099&quot; style=&quot;font-size: 16px&quot;&gt;Spider&lt;/font&gt;&lt;/b&gt;" style="rounded=1;whiteSpace=wrap;html=1;align=center;" vertex="1" parent="1">
          <mxGeometry x="580" y="170" width="120" height="60" as="geometry" />
        </mxCell>
        <mxCell id="B5H4TQYkD65pqtSx5uc_-8" value="&lt;b&gt;&lt;font color=&quot;#990099&quot; style=&quot;font-size: 16px&quot;&gt;Django_WEB&lt;/font&gt;&lt;/b&gt;" style="rounded=1;whiteSpace=wrap;html=1;align=center;" vertex="1" parent="1">
          <mxGeometry x="480" y="470" width="120" height="60" as="geometry" />
        </mxCell>
        <mxCell id="B5H4TQYkD65pqtSx5uc_-10" value="" style="endArrow=classic;html=1;exitX=0.5;exitY=1;exitDx=0;exitDy=0;entryX=0;entryY=0.5;entryDx=0;entryDy=0;" edge="1" parent="1" source="B5H4TQYkD65pqtSx5uc_-2" target="B5H4TQYkD65pqtSx5uc_-4">
          <mxGeometry width="50" height="50" relative="1" as="geometry">
            <mxPoint x="350" y="320" as="sourcePoint" />
            <mxPoint x="400" y="270" as="targetPoint" />
          </mxGeometry>
        </mxCell>
        <mxCell id="B5H4TQYkD65pqtSx5uc_-11" value="每天晚上定时请求一次" style="text;html=1;strokeColor=none;fillColor=none;align=center;verticalAlign=middle;whiteSpace=wrap;rounded=0;" vertex="1" parent="1">
          <mxGeometry x="120" y="280" width="100" height="20" as="geometry" />
        </mxCell>
        <mxCell id="B5H4TQYkD65pqtSx5uc_-12" value="" style="endArrow=classic;html=1;exitX=0;exitY=0.5;exitDx=0;exitDy=0;entryX=1;entryY=0.5;entryDx=0;entryDy=0;" edge="1" parent="1" source="B5H4TQYkD65pqtSx5uc_-4" target="B5H4TQYkD65pqtSx5uc_-3">
          <mxGeometry width="50" height="50" relative="1" as="geometry">
            <mxPoint x="190" y="270" as="sourcePoint" />
            <mxPoint x="280" y="310" as="targetPoint" />
          </mxGeometry>
        </mxCell>
        <mxCell id="B5H4TQYkD65pqtSx5uc_-13" value="每月5号落库" style="text;html=1;strokeColor=none;fillColor=none;align=center;verticalAlign=middle;whiteSpace=wrap;rounded=0;" vertex="1" parent="1">
          <mxGeometry x="140" y="320" width="100" height="20" as="geometry" />
        </mxCell>
        <mxCell id="B5H4TQYkD65pqtSx5uc_-17" value="" style="endArrow=classic;html=1;exitX=1;exitY=0.5;exitDx=0;exitDy=0;entryX=0;entryY=0.5;entryDx=0;entryDy=0;" edge="1" parent="1" source="B5H4TQYkD65pqtSx5uc_-3" target="B5H4TQYkD65pqtSx5uc_-6">
          <mxGeometry width="50" height="50" relative="1" as="geometry">
            <mxPoint x="280" y="310" as="sourcePoint" />
            <mxPoint x="190" y="390" as="targetPoint" />
          </mxGeometry>
        </mxCell>
        <mxCell id="B5H4TQYkD65pqtSx5uc_-18" value="接口取MySQL数据" style="text;html=1;strokeColor=none;fillColor=none;align=center;verticalAlign=middle;whiteSpace=wrap;rounded=0;" vertex="1" parent="1">
          <mxGeometry x="160" y="440" width="70" height="30" as="geometry" />
        </mxCell>
        <mxCell id="B5H4TQYkD65pqtSx5uc_-19" value="实时展示账单" style="text;html=1;strokeColor=none;fillColor=none;align=center;verticalAlign=middle;whiteSpace=wrap;rounded=0;" vertex="1" parent="1">
          <mxGeometry x="330" y="340" width="40" height="20" as="geometry" />
        </mxCell>
        <mxCell id="B5H4TQYkD65pqtSx5uc_-21" value="前端展示" style="text;html=1;strokeColor=none;fillColor=none;align=center;verticalAlign=middle;whiteSpace=wrap;rounded=0;" vertex="1" parent="1">
          <mxGeometry x="414" y="480" width="56" height="20" as="geometry" />
        </mxCell>
        <mxCell id="B5H4TQYkD65pqtSx5uc_-24" style="edgeStyle=orthogonalEdgeStyle;rounded=0;orthogonalLoop=1;jettySize=auto;html=1;exitX=0.5;exitY=1;exitDx=0;exitDy=0;entryX=0.5;entryY=0;entryDx=0;entryDy=0;" edge="1" parent="1" source="B5H4TQYkD65pqtSx5uc_-22" target="B5H4TQYkD65pqtSx5uc_-7">
          <mxGeometry relative="1" as="geometry" />
        </mxCell>
        <mxCell id="B5H4TQYkD65pqtSx5uc_-22" value="&lt;b&gt;&lt;font color=&quot;#990099&quot; style=&quot;font-size: 16px&quot;&gt;Ucloud&lt;/font&gt;&lt;/b&gt;" style="rounded=1;whiteSpace=wrap;html=1;align=center;" vertex="1" parent="1">
          <mxGeometry x="580" y="70" width="120" height="60" as="geometry" />
        </mxCell>
        <mxCell id="B5H4TQYkD65pqtSx5uc_-23" value="&lt;b&gt;&lt;font color=&quot;#990099&quot; style=&quot;font-size: 16px&quot;&gt;Alicloud&lt;/font&gt;&lt;/b&gt;" style="rounded=1;whiteSpace=wrap;html=1;align=center;" vertex="1" parent="1">
          <mxGeometry x="354" y="60" width="120" height="60" as="geometry" />
        </mxCell>
        <mxCell id="B5H4TQYkD65pqtSx5uc_-27" style="edgeStyle=orthogonalEdgeStyle;rounded=0;orthogonalLoop=1;jettySize=auto;html=1;exitX=0;exitY=0.5;exitDx=0;exitDy=0;entryX=1;entryY=0.5;entryDx=0;entryDy=0;" edge="1" parent="1" source="B5H4TQYkD65pqtSx5uc_-25" target="B5H4TQYkD65pqtSx5uc_-4">
          <mxGeometry relative="1" as="geometry" />
        </mxCell>
        <mxCell id="B5H4TQYkD65pqtSx5uc_-25" value="&lt;b&gt;&lt;font color=&quot;#990099&quot; style=&quot;font-size: 16px&quot;&gt;Pandas&lt;/font&gt;&lt;/b&gt;" style="rounded=1;whiteSpace=wrap;html=1;align=center;" vertex="1" parent="1">
          <mxGeometry x="580" y="270" width="120" height="60" as="geometry" />
        </mxCell>
        <mxCell id="B5H4TQYkD65pqtSx5uc_-28" value="爬虫每日采集" style="text;html=1;strokeColor=none;fillColor=none;align=center;verticalAlign=middle;whiteSpace=wrap;rounded=0;" vertex="1" parent="1">
          <mxGeometry x="630" y="140" width="100" height="20" as="geometry" />
        </mxCell>
        <mxCell id="B5H4TQYkD65pqtSx5uc_-29" value="数据每日清洗入缓存" style="text;html=1;strokeColor=none;fillColor=none;align=center;verticalAlign=middle;whiteSpace=wrap;rounded=0;" vertex="1" parent="1">
          <mxGeometry x="640" y="240" width="130" height="20" as="geometry" />
        </mxCell>
        <mxCell id="B5H4TQYkD65pqtSx5uc_-30" value="&lt;b&gt;&lt;font color=&quot;#990099&quot; style=&quot;font-size: 16px&quot;&gt;API(暂不支持按产品分类)&lt;/font&gt;&lt;/b&gt;" style="rounded=1;whiteSpace=wrap;html=1;align=center;" vertex="1" parent="1">
          <mxGeometry x="420" y="160" width="120" height="60" as="geometry" />
        </mxCell>
        <mxCell id="B5H4TQYkD65pqtSx5uc_-36" style="edgeStyle=orthogonalEdgeStyle;rounded=0;orthogonalLoop=1;jettySize=auto;html=1;exitX=0.5;exitY=1;exitDx=0;exitDy=0;entryX=0.5;entryY=0;entryDx=0;entryDy=0;" edge="1" parent="1" source="B5H4TQYkD65pqtSx5uc_-31" target="B5H4TQYkD65pqtSx5uc_-4">
          <mxGeometry relative="1" as="geometry" />
        </mxCell>
        <mxCell id="B5H4TQYkD65pqtSx5uc_-31" value="&lt;b&gt;&lt;font color=&quot;#990099&quot; style=&quot;font-size: 16px&quot;&gt;Pandas&lt;/font&gt;&lt;/b&gt;" style="rounded=1;whiteSpace=wrap;html=1;align=center;" vertex="1" parent="1">
          <mxGeometry x="270" y="160" width="120" height="60" as="geometry" />
        </mxCell>
        <mxCell id="B5H4TQYkD65pqtSx5uc_-33" value="" style="endArrow=classic;html=1;exitX=0.5;exitY=1;exitDx=0;exitDy=0;entryX=0.5;entryY=0;entryDx=0;entryDy=0;" edge="1" parent="1" source="B5H4TQYkD65pqtSx5uc_-23" target="B5H4TQYkD65pqtSx5uc_-31">
          <mxGeometry width="50" height="50" relative="1" as="geometry">
            <mxPoint x="190" y="270" as="sourcePoint" />
            <mxPoint x="280" y="310" as="targetPoint" />
          </mxGeometry>
        </mxCell>
        <mxCell id="B5H4TQYkD65pqtSx5uc_-34" value="每月5号对数据表进行分析" style="text;html=1;strokeColor=none;fillColor=none;align=center;verticalAlign=middle;whiteSpace=wrap;rounded=0;" vertex="1" parent="1">
          <mxGeometry x="290" y="125" width="80" height="20" as="geometry" />
        </mxCell>
        <mxCell id="B5H4TQYkD65pqtSx5uc_-37" value="月度数据落Redis中转" style="text;html=1;strokeColor=none;fillColor=none;align=center;verticalAlign=middle;whiteSpace=wrap;rounded=0;" vertex="1" parent="1">
          <mxGeometry x="320" y="240" width="80" height="20" as="geometry" />
        </mxCell>
        <mxCell id="B5H4TQYkD65pqtSx5uc_-38" value="天数据落库" style="text;html=1;strokeColor=none;fillColor=none;align=center;verticalAlign=middle;whiteSpace=wrap;rounded=0;" vertex="1" parent="1">
          <mxGeometry x="450" y="280" width="80" height="20" as="geometry" />
        </mxCell>
        <mxCell id="B5H4TQYkD65pqtSx5uc_-39" value="" style="endArrow=classic;html=1;exitX=0.5;exitY=1;exitDx=0;exitDy=0;entryX=0.5;entryY=0;entryDx=0;entryDy=0;" edge="1" parent="1" source="B5H4TQYkD65pqtSx5uc_-23" target="B5H4TQYkD65pqtSx5uc_-30">
          <mxGeometry width="50" height="50" relative="1" as="geometry">
            <mxPoint x="440" y="130" as="sourcePoint" />
            <mxPoint x="340" y="170" as="targetPoint" />
          </mxGeometry>
        </mxCell>
        <mxCell id="B5H4TQYkD65pqtSx5uc_-40" value="每天拉取API获取实时数据" style="text;html=1;strokeColor=none;fillColor=none;align=center;verticalAlign=middle;whiteSpace=wrap;rounded=0;" vertex="1" parent="1">
          <mxGeometry x="470" y="130" width="80" height="20" as="geometry" />
        </mxCell>
        <mxCell id="B5H4TQYkD65pqtSx5uc_-41" value="每天拉取API获取实时数据" style="text;html=1;strokeColor=none;fillColor=none;align=center;verticalAlign=middle;whiteSpace=wrap;rounded=0;" vertex="1" parent="1">
          <mxGeometry x="100" y="150" width="80" height="20" as="geometry" />
        </mxCell>
        <mxCell id="B5H4TQYkD65pqtSx5uc_-42" value="" style="endArrow=classic;html=1;exitX=0.5;exitY=1;exitDx=0;exitDy=0;entryX=1;entryY=0.5;entryDx=0;entryDy=0;" edge="1" parent="1" source="B5H4TQYkD65pqtSx5uc_-30" target="B5H4TQYkD65pqtSx5uc_-4">
          <mxGeometry width="50" height="50" relative="1" as="geometry">
            <mxPoint x="440" y="130" as="sourcePoint" />
            <mxPoint x="490" y="170" as="targetPoint" />
          </mxGeometry>
        </mxCell>
      </root>
    </mxGraphModel>
  </diagram>
</mxfile>
